<?xml version="1.0" standalone="no"?><!DOCTYPE svg PUBLIC "-//W3C//DTD SVG 1.1//EN" "http://www.w3.org/Graphics/SVG/1.1/DTD/svg11.dtd"><svg t="1775627498772" class="icon" viewBox="0 0 1024 1024" version="1.1" xmlns="http://www.w3.org/2000/svg" p-id="5099" xmlns:xlink="http://www.w3.org/1999/xlink" width="64" height="64"><path d="M795.940571 710.363429c0.043886 15.023543-10.488686 33.28-23.552 40.828342l-384.277942 221.915429c-6.582857 3.803429-12.580571 4.139886-16.866743 1.609143a4.885943 4.885943 0 0 1-0.585143-0.380343c0.087771 0.087771 0.2048 0.146286 0.321828 0.234057l-209.773714-121.943771c-4.242286-2.472229-6.875429-7.709257-6.904686-15.169829l-0.936228-364.456228 210.110171 122.119314 431.5136-249.212343z" fill="#FFFFFF" p-id="5100"></path><path d="M373.335771 958.961371a2.442971 2.442971 0 0 1-0.234057-0.146285 4.476343 4.476343 0 0 0 0.234057 0.131657z" fill="#FFFFFF" p-id="5101"></path><path d="M373.335771 958.961371a2.442971 2.442971 0 0 1-0.234057-0.146285 4.476343 4.476343 0 0 0 0.234057 0.131657z" fill="#FFFFFF" p-id="5102"></path><path d="M371.317029 974.760229L161.206857 852.626286c-4.242286-2.472229-6.875429-7.709257-6.904686-15.169829l-0.936228-364.456228 210.110171 122.119314 0.936229 364.456228c0.029257 7.460571 2.633143 12.6976 6.904686 15.184458z" fill="#F0F5FC" p-id="5103"></path><path d="M267.849143 800.855771c0-57.197714-41.984-103.716571-93.769143-103.716571-6.875429 0-13.604571 0.877714-20.187429 2.486857l-0.585142-226.596571 210.212571 122.148571 0.877714 364.397714c0 7.460571 2.633143 12.726857 6.875429 15.213715l-147.894857-86.016c26.770286-18.139429 44.470857-50.761143 44.470857-87.917715z" fill="#E1EBFA" p-id="5104"></path><path d="M795.004343 345.921829l0.936228 364.456228c0.043886 15.008914-10.488686 33.265371-23.552 40.813714L388.096 973.092571c-13.019429 7.533714-23.639771 1.477486-23.683657-13.531428l-0.950857-364.456229z" fill="#D2E1F7" p-id="5105"></path><path d="M795.882057 710.304914c0.146286 15.067429-10.415543 33.323886-23.552 40.842972l-384.146286 221.988571c-13.136457 7.533714-23.698286 1.448229-23.698285-13.604571l-0.482743-190.610286c16.4864 4.490971 33.792 6.890057 51.712 6.890057 108.573257 0 196.490971-87.917714 196.490971-196.520228 0-40.199314-12.010057-77.677714-32.826514-108.763429l215.698286-124.606171z" fill="#C3D7F4" p-id="5106"></path><path d="M831.356343 330.386286l-79.374629 45.831314L367.616 598.162286l-79.374629 45.831314c-5.134629 2.984229-9.464686 3.145143-12.551314 1.345829l-0.043886-0.029258a270.306743 270.306743 0 0 1-0.555885-0.380342c0.043886 0.073143 0.1024 0.087771 0.146285 0.131657L105.530514 546.435657c-6.509714-3.759543-7.606857-16.193829 0.146286-29.301028L376.378514 60.342857c3.437714-5.778286 7.840914-10.225371 12.273372-12.785371 0.3072-0.190171 0.629029-0.336457 0.936228-0.482743 4.096-2.135771 8.177371-2.603886 11.3664-0.9216l350.032457 188.284343 92.5696 53.774628c11.512686 6.085486 3.759543 32.958171-12.200228 42.174172z" fill="#FFFFFF" p-id="5107"></path><path d="M558.840686 146.475886c4.417829-2.56 8.850286-3.218286 12.288-1.418972l272.413257 143.169829c11.527314 6.070857 3.774171 32.943543-12.1856 42.159543l-79.374629 45.831314L367.616 598.162286l-79.374629 45.831314c-15.959771 9.216-23.844571-8.6016-12.375771-27.969829l270.687086-456.777142c3.437714-5.778286 7.855543-10.24 12.288-12.785372z" fill="#B3CCFF" p-id="5108"></path><path d="M831.429486 330.386286l-79.433143 45.802057-384.321829 222.0032-79.418514 45.802057c-16.018286 9.289143-23.8592-8.645486-12.331886-28.028343l124.1088-209.495771c16.647314 5.12 34.0992 7.840914 52.370286 7.840914 103.921371 0 188.152686-88.254171 188.152686-197.163886 0-12.814629-1.1264-25.307429-3.364572-37.4784l206.409143 108.587886c11.527314 6.085486 3.6864 32.841143-12.170971 42.130286z" fill="#6699FF" p-id="5109"></path><path d="M389.588114 47.060114l-0.936228 0.497372c-4.432457 2.56-8.835657 7.021714-12.288 12.785371L105.691429 517.12c-7.753143 13.1072-6.656 25.541486-0.146286 29.301029l170.159543 98.9184c-6.480457-3.7888-7.606857-16.193829 0.175543-29.315658l270.687085-456.777142c3.423086-5.778286 7.855543-10.24 12.288-12.785372 0.292571-0.175543 0.6144-0.321829 0.9216-0.482743z" fill="#B3CCFF" p-id="5110"></path><path d="M559.835429 145.934629a2.340571 2.340571 0 0 0-1.024 0.585142c-4.388571 2.486857-8.777143 7.021714-12.288 12.726858l-270.628572 456.850285c-7.753143 13.019429-6.729143 25.453714-0.146286 29.257143l-170.276571-98.889143c-6.436571-3.803429-7.606857-16.237714 0.146286-29.403428l61.44-103.716572c17.408 9.069714 37.010286 14.043429 57.782857 14.043429 72.850286 0 131.803429-62.317714 131.803428-139.117714 0-44.470857-19.748571-83.968-50.468571-109.421715l70.217143-118.491428c3.364571-5.851429 7.899429-10.24 12.288-12.873143l0.877714-0.438857z" fill="#8CB3FF" p-id="5111"></path><path d="M571.128686 145.071543l272.427885 143.140571-92.5696-53.774628L400.969143 46.153143c-3.203657-1.682286-7.255771-1.214171-11.3664 0.906971L559.762286 145.993143c4.110629-2.135771 8.177371-2.603886 11.3664-0.9216z" fill="#B3CCFF" p-id="5112"></path><path d="M559.396571 283.4432c32.987429-19.031771 60.0064-3.9936 60.123429 33.909029 0.1024 37.902629-26.755657 84.055771-59.743086 103.087542-32.987429 19.0464-59.6992 3.818057-59.816228-34.084571-0.1024-37.888 26.448457-83.8656 59.435885-102.912z" fill="#666666" p-id="5113"></path><path d="M875.359086 439.120457c26.2144-15.125943 47.542857-2.984229 47.630628 27.136l0.789943 282.331429c0.087771 30.1056-21.0944 66.794057-47.3088 81.92L630.784 972.331886c-26.2144 15.125943-47.542857 2.984229-47.630629-27.136l-0.804571-282.331429c-0.073143-30.1056 21.109029-66.794057 47.323429-81.92z" fill="#FF4040" p-id="5114"></path><path d="M923.794286 748.573257c0.087771 30.134857-21.109029 66.7648-47.294172 81.92L630.784 972.346514c-26.185143 15.1552-47.586743 2.9696-47.689143-27.136l-0.380343-156.0576c14.014171 4.315429 28.789029 6.612114 44.222172 6.612115 83.280457 0 150.820571-67.525486 150.820571-150.776686 0-47.381943-21.869714-89.585371-56.027428-117.204114l153.6-88.634515c26.185143-15.1552 47.586743-2.9696 47.689142 27.150629z" fill="#FF0000" p-id="5115"></path><path d="M535.054629 635.392l0.760685 282.287543c0.1024 14.965029 5.368686 25.512229 13.809372 30.500571l47.396571 27.428572c-8.528457-4.885943-13.809371-15.447771-13.897143-30.398172l-0.775314-282.287543c-0.058514-15.213714 5.354057-32.080457 14.058057-47.030857l-47.338057-27.457828c-8.689371 14.921143-14.072686 31.773257-14.014171 46.957714z" fill="#FFBFBF" p-id="5116"></path><path d="M597.021257 975.608686l-47.396571-27.428572c-8.440686-4.988343-13.706971-15.535543-13.809372-30.500571l-0.087771-22.162286c15.535543-24.649143 25.219657-60.035657 25.219657-99.269486 0-39.804343-9.976686-75.585829-25.7024-100.132571l-0.190171-60.708571c-0.1024-15.169829 5.368686-32.036571 13.999542-47.0016l47.396572 27.516342c-8.733257 14.965029-14.189714 31.744-14.101943 47.0016l0.760686 282.287543c0.1024 14.9504 5.383314 25.512229 13.911771 30.398172z" fill="#FF8080" p-id="5117"></path><path d="M861.813029 408.356571c-8.630857-5.076114-20.626286-4.315429-33.762743 3.262172l-245.701486 141.867886c-12.990171 7.460571-24.722286 20.2752-33.28 34.962285l47.338057 27.4432c8.543086-14.657829 20.2752-27.472457 33.236114-34.962285l245.701486-141.780115c13.238857-7.665371 25.131886-8.338286 33.762743-3.364571z" fill="#FF8080" p-id="5118"></path><path d="M909.1072 435.785143c-8.630857-4.973714-20.523886-4.3008-33.762743 3.364571l-245.701486 141.765486c-12.946286 7.489829-24.649143 20.333714-33.206857 35.006171l-47.381943-27.516342c8.543086-14.687086 20.333714-27.4432 33.294629-34.9184l53.628343-30.983315a142.482286 142.482286 0 0 0 31.466057 3.452343c47.879314 0 86.7328-22.6304 86.7328-50.644114 0-6.231771-1.930971-12.288-5.558857-17.846857l79.433143-45.845943c13.136457-7.5776 25.131886-8.338286 33.762743-3.262172z" fill="#FFBFBF" p-id="5119"></path><path d="M790.674286 755.770514a11.556571 11.556571 0 0 1 1.141028 4.593372c0 3.2768-0.950857 6.626743-2.823314 9.991314a19.704686 19.704686 0 0 1-7.343543 7.636114c-2.106514 1.214171-4.052114 1.711543-5.778286 1.360457a5.368686 5.368686 0 0 1-3.9936-3.042742l-14.789485-32.1536-76.975543 44.544-14.570057 49.152a26.389943 26.389943 0 0 1-3.949715 7.636114c-1.755429 2.3552-3.657143 4.096-5.763657 5.310171-3.042743 1.755429-5.500343 2.048-7.3728 0.892343-1.887086-1.199543-2.8672-3.423086-2.8672-6.699886 0-1.389714 0.380343-3.364571 1.111772-5.895314l57.285485-190.317714c1.199543-3.832686 2.911086-7.3728 5.076115-10.6496a24.283429 24.283429 0 0 1 8.016457-7.606857l2.267428-1.316572c3.145143-1.828571 5.851429-2.384457 8.031086-1.682285 2.194286 0.760686 3.905829 2.325943 5.12 4.768914z m-102.677943 6.714515l61.074286-35.357258-30.778515-67.028114zM838.144 559.908571c2.267429 1.301943 3.408457 3.7888 3.423086 7.416686v1.024c0 3.6864-1.111771 7.445943-3.364572 11.410286-2.2528 3.8912-4.973714 6.773029-8.133485 8.6016l-1.360458 0.789943c-3.159771 1.828571-5.880686 2.106514-8.148114 0.804571-2.267429-1.3312-3.408457-3.774171-3.423086-7.460571v-1.024c0-3.642514 1.111771-7.431314 3.364572-11.337143 2.2528-3.920457 4.973714-6.802286 8.133486-8.630857l1.360457-0.775315c3.159771-1.828571 5.880686-2.106514 8.148114-0.8192zM829.249829 614.677943c2.998857-1.7408 5.500343-2.048 7.489828-0.965486 1.960229 1.170286 2.925714 3.466971 2.940343 6.919314l0.321829 111.850058c0 3.2768-0.994743 6.641371-3.013486 10.108342-2.048 3.437714-4.5056 5.983086-7.358172 7.621486-2.881829 1.667657-5.295543 1.9456-7.255771 0.833829-1.9456-1.170286-2.9696-3.364571-2.984229-6.641372l-0.3072-111.835428c0-3.2768 0.994743-6.699886 2.925715-10.196115a19.748571 19.748571 0 0 1 7.241143-7.694628z" fill="#FFF2BF" p-id="5120"></path></svg>