<?xml version="1.0" standalone="no"?><!DOCTYPE svg PUBLIC "-//W3C//DTD SVG 1.1//EN" "http://www.w3.org/Graphics/SVG/1.1/DTD/svg11.dtd"><svg t="1775647184291" class="icon" viewBox="0 0 1024 1024" version="1.1" xmlns="http://www.w3.org/2000/svg" p-id="8954" xmlns:xlink="http://www.w3.org/1999/xlink" width="64" height="64"><path d="M792.64 96h-320a136.96 136.96 0 0 0-136.96 136.96v103.04H231.36A136.96 136.96 0 0 0 96 471.36v320a136.96 136.96 0 0 0 136.96 136.96h320a136.96 136.96 0 0 0 136.96-136.96v-101.76h103.04a136.96 136.96 0 0 0 136.96-136.96v-320A136.96 136.96 0 0 0 792.64 96zM608 792.64a53.76 53.76 0 0 1-53.76 53.76h-320a53.76 53.76 0 0 1-53.76-53.76v-320a53.76 53.76 0 0 1 53.76-53.76h320A53.76 53.76 0 0 1 608 471.36z m240-240A53.76 53.76 0 0 1 792.64 608h-103.04v-136.64a136.96 136.96 0 0 0-136.96-136.96h-135.04V231.36a53.76 53.76 0 0 1 53.76-53.76h320a53.76 53.76 0 0 1 53.76 53.76z" p-id="8955"></path></svg>