<?xml version="1.0" standalone="no"?><!DOCTYPE svg PUBLIC "-//W3C//DTD SVG 1.1//EN" "http://www.w3.org/Graphics/SVG/1.1/DTD/svg11.dtd"><svg t="1775647450879" class="icon" viewBox="0 0 1024 1024" version="1.1" xmlns="http://www.w3.org/2000/svg" p-id="14268" xmlns:xlink="http://www.w3.org/1999/xlink" width="64" height="64"><path d="M512 0a512 512 0 1 1 0 1024A512 512 0 0 1 512 0z m45.248 272.832a64 64 0 0 0-90.496 0L302.08 437.44a46.72 46.72 0 0 0 0 65.92 43.52 43.52 0 0 0 61.568 0l104.384-104.32 1.92 367.872a42.048 42.048 0 0 0 84.096 0l1.92-372.288 105.472 105.472a43.52 43.52 0 0 0 61.568 0l4.608-5.376a43.52 43.52 0 0 0-4.608-56.128z" p-id="14269" class="" fill="#8a8a8a"></path></svg>