<?xml version="1.0" standalone="no"?><!DOCTYPE svg PUBLIC "-//W3C//DTD SVG 1.1//EN" "http://www.w3.org/Graphics/SVG/1.1/DTD/svg11.dtd"><svg t="1775627259867" class="icon" viewBox="0 0 1024 1024" version="1.1" xmlns="http://www.w3.org/2000/svg" p-id="1858" width="64" height="64" xmlns:xlink="http://www.w3.org/1999/xlink"><path d="M470.196706 60.235294c58.127059 0.843294 112.579765 22.889412 157.214118 66.981647 6.625882 6.445176 12.348235 8.011294 21.142588 6.746353 128.120471-17.829647 240.519529 62.042353 264.071529 187.512471 6.144 32.948706 4.216471 65.837176-5.360941 98.002823-2.409412 7.830588-0.843294 12.830118 4.336941 19.034353 106.014118 128.301176 42.586353 322.258824-119.386353 364.483765-9.276235 2.349176-13.312 6.505412-16.50447 14.757647-60.235294 154.383059-262.384941 195.945412-380.265412 78.185412-5.903059-5.842824-10.902588-7.047529-18.913882-5.963294-129.927529 18.070588-242.447059-61.861647-265.697883-188.717177a204.197647 204.197647 0 0 1 5.722353-96.798118c2.409412-7.830588 0.843294-12.830118-4.21647-19.034352C6.023529 457.005176 70.475294 261.662118 233.110588 220.461176c8.131765-2.048 11.866353-5.541647 14.817883-12.950588C282.864941 117.217882 367.856941 59.813647 470.196706 60.235294z m140.830118 555.971765c-73.487059 41.803294-144.564706 81.980235-215.160471 122.88-15.962353 9.216-29.515294 8.975059-45.477647-0.301177-55.356235-32.286118-111.073882-63.608471-166.79153-95.111529-4.035765-2.228706-7.408941-6.746353-13.854117-4.818824-7.529412 67.102118 13.733647 123.000471 69.571765 162.635295 56.32 39.875765 118.181647 44.875294 179.501176 12.830117 62.704941-32.707765 123.361882-69.451294 184.801882-104.508235 3.493647-1.927529 7.408941-3.433412 7.408942-8.553412V616.207059z m-39.152942-456.824471c-1.445647-4.818824-5.059765-6.204235-7.830588-8.192-56.018824-37.345882-115.651765-43.369412-176.188235-13.914353-61.018353 29.816471-93.485176 80.715294-95.292235 147.998118-1.807059 68.367059-0.301176 136.734118-0.722824 205.040941 0 7.288471 2.529882 11.143529 8.794353 14.456471 20.600471 11.203765 40.96 23.070118 61.199059 34.514823 2.529882 1.385412 4.818824 4.457412 8.975059 1.807059 0-80.896 0.301176-162.213647-0.120471-243.531294-0.180706-16.685176 6.264471-27.467294 20.961882-35.599059 42.586353-23.612235 84.690824-47.947294 126.976-72.101647 17.769412-10.059294 35.538824-20.419765 53.187765-30.479059z m81.016471 320.150588v17.648942c0 76.8-0.120471 153.660235 0.120471 230.460235 0.180706 15.600941-5.722353 26.202353-19.576471 33.671529-19.456 10.480941-38.490353 21.684706-57.645177 32.527059-41.321412 23.672471-82.763294 47.284706-128 73.065412 3.915294 1.385412 5.903059 1.686588 7.288471 2.770823 51.922824 37.406118 108.664471 45.959529 168.116706 22.528 59.512471-23.491765 97.882353-68.065882 105.170823-130.891294 8.794353-76.739765 1.807059-154.383059 3.192471-231.54447 0.180706-4.156235-1.807059-6.505412-5.180235-8.432941-23.792941-13.492706-47.405176-27.045647-73.487059-41.803295zM553.923765 375.145412c5.722353 3.433412 9.637647 5.662118 13.43247 7.830588 67.764706 38.731294 135.408941 77.522824 203.414589 115.712 14.697412 8.312471 21.022118 19.275294 20.901647 35.779765-0.481882 63.909647-0.180706 127.879529-0.180706 191.789176 0 4.698353 0.421647 9.216 0.722823 14.878118 3.493647-1.204706 5.601882-1.927529 7.710118-2.770824 60.837647-27.888941 96.978824-74.691765 102.761412-140.348235 6.023529-68.065882-21.564235-122.759529-80.77553-158.780235-59.632941-36.321882-121.253647-69.451294-181.910588-104.207059-5.300706-3.072-9.216-3.493647-14.817882-0.301177-22.949647 13.251765-46.200471 26.081882-71.258353 40.417883zM232.207059 284.431059c-6.324706-0.783059-10.059294 2.108235-14.034824 4.035765-57.946353 28.672-91.798588 75.113412-97.159529 138.541176-5.421176 65.897412 20.48 120.048941 77.161412 155.407059 60.777412 37.767529 124.205176 71.619765 186.368 107.218823 3.614118 2.108235 6.987294 3.915294 11.203764 1.385412l73.60753-42.10447-12.709647-7.710118c-67.764706-38.671059-135.408941-77.462588-203.474824-115.59153-15.239529-8.553412-21.383529-19.696941-21.263059-36.864 0.602353-67.764706 0.301176-135.710118 0.301177-204.318117z m180.705882 122.639059c5.903059-3.011765 9.818353-4.999529 13.613177-7.228236 67.041882-38.068706 134.264471-75.896471 200.884706-114.688 15.962353-9.276235 29.515294-9.517176 45.537882-0.301176 56.139294 32.707765 112.64 64.451765 169.08047 96.496941 3.373176 1.927529 6.204235 5.541647 11.926589 3.855059 7.408941-65.656471-12.769882-121.193412-67.222589-160.948706-56.560941-41.441882-119.145412-47.104-181.549176-14.637176-62.765176 32.707765-123.361882 69.451294-184.922353 104.387764-3.553882 1.927529-7.348706 3.614118-7.348706 8.673883v84.329411z m198.174118 108.604235c0-18.913882-0.481882-34.635294 0.12047-50.236235 0.240941-7.228235-2.108235-11.324235-8.553411-14.757647-28.009412-15.480471-55.898353-31.322353-83.425883-47.525647-5.360941-3.132235-9.276235-3.132235-14.697411-0.120471a3800.847059 3800.847059 0 0 1-83.486118 47.525647c-6.445176 3.614118-8.432941 7.710118-8.432941 14.878118 0.481882 30.780235 0.602353 61.741176 0 92.521411-0.120471 8.432941 3.011765 12.830118 10.24 16.564706 13.312 6.746353 25.901176 14.637176 38.972235 21.925647 16.504471 9.276235 33.008941 25.961412 49.392941 25.840942 17.106824-0.120471 34.032941-16.444235 50.838588-25.840942 16.082824-9.095529 37.225412-15.179294 46.381177-28.852706 9.336471-14.456471 1.626353-36.562824 2.590118-51.922823z" fill="#AB68FF" p-id="1859"></path></svg>